<?xml version="1.0" encoding="UTF-8" standalone="no"?>
<!-- Created with Inkscape (http://www.inkscape.org/) -->

<svg
   version="1.1"
   id="svg1"
   width="523"
   height="489"
   viewBox="0 0 523 489"
   sodipodi:docname="cohesiva-logo.png"
   inkscape:version="1.4.2 (f4327f4, 2025-05-13)"
   xmlns:inkscape="http://www.inkscape.org/namespaces/inkscape"
   xmlns:sodipodi="http://sodipodi.sourceforge.net/DTD/sodipodi-0.dtd"
   xmlns:xlink="http://www.w3.org/1999/xlink"
   xmlns="http://www.w3.org/2000/svg"
   xmlns:svg="http://www.w3.org/2000/svg">
  <defs
     id="defs1" />
  <sodipodi:namedview
     id="namedview1"
     bordercolor="#000000"
     borderopacity="0.25"
     inkscape:showpageshadow="2"
     inkscape:pageopacity="0.0"
     inkscape:pagecheckerboard="0"
     inkscape:deskcolor="#d1d1d1"
     inkscape:zoom="1.8465754"
     inkscape:cx="208.49406"
     inkscape:cy="217.97106"
     inkscape:window-width="2496"
     inkscape:window-height="1558"
     inkscape:window-x="-11"
     inkscape:window-y="-11"
     inkscape:window-maximized="1"
     inkscape:current-layer="g1" />
  <g
     inkscape:groupmode="layer"
     inkscape:label="Image"
     id="g1">
    <g
       id="g2">
      <path
         style="fill:#fefefe"
         d="M 327.5,456.62197 c 32.95696,-7.16721 59.12679,-27.93554 74.94073,-59.47282 13.37461,-26.67259 19.69753,-57.63452 19.7373,-96.64915 0.0552,-54.11634 -16.34791,-105.44149 -42.51347,-133.02451 L 373.99614,161.5 367.86249,168 c -47.29327,50.11802 -78.28806,101.2156 -90.33305,148.92182 -9.37376,37.12632 -10.21568,81.66788 -2.39257,126.57818 1.14968,6.6 2.27444,12.19773 2.49947,12.43941 0.22503,0.24167 3.88641,1.00673 8.1364,1.70013 9.71084,1.58435 32.29538,1.0336 41.72726,-1.01757 z M 262.46777,450.25 C 259.26686,442.74327 249.26399,410.7533 246.01166,397.62206 240.9757,377.28937 239.2753,367.266 237.81538,349.30723 237.17569,341.43825 236.37761,335 236.04187,335 c -0.33573,0 -1.90634,2.72872 -3.49024,6.06381 -3.83315,8.0712 -13.01147,20.90522 -20.76166,29.03096 -11.87501,12.45044 -23.11039,20.82824 -40.12346,29.91855 -5.31658,2.84072 -9.66651,5.36002 -9.66651,5.59845 0,1.30545 22.15752,14.6222 37.16338,22.33533 19.44841,9.99663 27.53789,13.42632 46.33662,19.64529 14.61367,4.83447 18.1309,5.38536 16.96777,2.65761 z M 151.71716,384.60787 c 22.77995,-18.3922 41.50744,-46.94347 48.89371,-74.54161 4.50446,-16.83055 5.77507,-42.85669 2.8978,-59.35621 -2.99406,-17.16918 -9.24173,-33.13619 -18.6683,-47.71005 -5.32679,-8.23544 -17.41412,-23 -18.82944,-23 -1.6651,0 -24.50157,15.03946 -35.12641,23.13326 -11.70625,8.91761 -28.96704,25.5431 -35.160867,33.86674 -13.147213,17.66803 -19.397204,36.02063 -18.389736,54 1.446995,25.82321 14.751321,51.19931 40.728573,77.68396 9.75426,9.94478 23.61585,22.26667 25.08755,22.30091 0.35753,0.008 4.21273,-2.86133 8.56712,-6.377 z M 249,275.48183 c 0,-2.77338 10.14442,-21.83022 17.29087,-32.48183 14.57951,-21.73042 35.53566,-44.70943 59.73396,-65.5 5.76134,-4.95 11.06957,-9.56226 11.79606,-10.24946 0.72649,-0.6872 5.56399,-4.6622 10.75,-8.83333 C 353.7569,154.24608 358,150.4918 358,150.07436 c 0,-0.41743 -3.4875,-2.36197 -7.75,-4.32118 -14.11833,-6.48935 -23.60469,-8.6876 -40.75,-9.4429 -31.61013,-1.39252 -71.93562,9.21738 -115.92287,30.50007 l -13.92287,6.73641 9.8831,6.97662 c 19.63156,13.85819 36.34287,33.4009 46.00689,53.80184 4.67491,9.86884 8.89764,24.03206 9.96586,33.42599 0.35954,3.16184 0.87218,6.53629 1.13919,7.49879 0.5959,2.14804 2.3507,2.3211 2.3507,0.23183 z m -2.09967,-54.41785 c -5.01537,-2.72737 -9.67536,-8.34785 -10.48075,-12.64099 -1.0248,-5.46262 0.17324,-13.94801 2.71328,-19.2175 2.79544,-5.79934 11.06283,-14.24435 16.82011,-17.1815 4.6643,-2.37955 13.3025,-3.67865 17.48332,-2.62934 3.89432,0.97742 10.28374,7.22908 11.67298,11.42132 1.80126,5.43559 1.35019,14.88201 -1.01168,21.18666 -2.62764,7.01408 -9.44673,14.8127 -15.70994,17.96659 -6.63655,3.34188 -16.43689,3.8412 -21.48732,1.09476 z M 434.75,166.03766 c 4.30293,-1.37464 7.25,-2.86805 7.25,-3.67388 0,-2.41086 -13.67137,-15.84496 -18.67153,-18.34748 -5.86646,-2.93609 -14.62989,-3.74669 -21.1062,-1.95228 -5.95383,1.64964 -19.2235,7.62955 -19.21854,8.66073 0.005,1.11258 10.68562,9.50335 16.02051,12.58625 10.14904,5.86486 22.86473,6.83535 35.72576,2.72666 z M 381.5,141.08444 C 426.93442,126.77447 452.93127,108.00653 467.49771,79 c 7.1389,-14.215852 12.13095,-31.364112 14.09251,-48.409335 l 0.68004,-5.909334 -8.95822,0.635872 c -21.53184,1.528374 -48.74586,9.691611 -61.44868,18.432417 -23.1432,15.924834 -32.03246,35.200077 -36.3177,78.75038 -0.8659,8.8 -1.80148,17.0125 -2.07906,18.25 -0.61953,2.7619 0.21578,2.79667 8.0334,0.33444 z M 368.72083,125.25 c -0.31782,-8.6625 -1.2761,-18.99946 -2.1295,-22.97103 -5.14237,-23.931628 -19.70581,-41.735381 -44.27078,-54.120892 l -6.17945,-3.115642 -1.04291,3.228782 c -2.06047,6.379071 -4.09791,21.153045 -4.08341,29.609772 0.036,20.99826 8.08246,36.24084 25.06607,47.48327 5.14923,3.40857 30.26012,15.53298 32.3185,15.60449 0.51931,0.018 0.65516,-6.62421 0.32148,-15.71875 z"
         id="path7"
         sodipodi:nodetypes="cccccccccsssscsssssssssssssssssssssssssscsssssssssscsssssssssssssssssscssssscsssssssscsssss" />
      <path
         style="fill:#f7a61b"
         d="m 246.6493,275.25 c -0.26701,-0.9625 -0.77965,-4.33695 -1.13919,-7.49879 -1.06822,-9.39393 -5.29095,-23.55715 -9.96586,-33.42599 -9.66402,-20.40094 -26.37533,-39.94365 -46.00689,-53.80184 l -9.8831,-6.97662 13.92287,-6.73641 C 251.39996,138.83348 301.5782,129.71871 337.5,140.66706 c 6.42266,1.95751 20.5,8.4175 20.5,9.4073 0,0.41744 -4.2431,4.17172 -9.42911,8.34285 -5.18601,4.17113 -10.02351,8.14613 -10.75,8.83333 -0.72649,0.6872 -6.03472,5.29946 -11.79606,10.24946 -24.1983,20.79057 -45.15445,43.76958 -59.73396,65.5 C 259.14442,253.65161 249,272.70845 249,275.48183 c 0,2.08927 -1.7548,1.91621 -2.3507,-0.23183 z m 21.73835,-55.28078 c 6.26321,-3.15389 13.0823,-10.95251 15.70994,-17.96659 2.36187,-6.30465 2.81294,-15.75107 1.01168,-21.18666 -1.38924,-4.19224 -7.77866,-10.4439 -11.67298,-11.42132 -4.18082,-1.04931 -12.81902,0.24979 -17.48332,2.62934 -5.75728,2.93715 -14.02467,11.38216 -16.82011,17.1815 -2.54004,5.26949 -3.73808,13.75488 -2.71328,19.2175 0.80539,4.29314 5.46538,9.91362 10.48075,12.64099 5.05043,2.74644 14.85077,2.24712 21.48732,-1.09476 z"
         id="path6" />
      <path
         style="fill:#8fc649"
         d="m 257.5,450.91586 c -1.71362,-0.80846 -1.60623,-0.88985 0.75,-0.56839 3.05413,0.41668 3.52664,-0.71369 1.25,-2.99033 -0.825,-0.825 -1.5,-2.5663 -1.5,-3.86955 0,-1.30326 -0.39089,-2.61114 -0.86865,-2.90641 -0.47775,-0.29527 -1.15807,-2.34683 -1.51182,-4.55902 C 255.26579,433.80997 254.53168,432 253.98818,432 c -0.5435,0 -0.99328,-1.0125 -0.99952,-2.25 -0.006,-1.2375 -1.85679,-8.55 -4.11233,-16.25 -2.25555,-7.7 -4.53688,-15.9125 -5.06964,-18.25 -0.53276,-2.3375 -1.41254,-4.25 -1.95506,-4.25 -0.54252,0 -0.72236,-0.83195 -0.39963,-1.84877 0.49057,-1.54566 -1.137,-11.97361 -4.00359,-25.65123 -2.56011,-12.21528 -3.00287,-16.86374 -1.92881,-20.25 1.22769,-3.8706 -1.18025,-2.50478 -3.96673,2.25 -4.11955,7.02948 -4.0772,5.27691 0.0544,-2.25 5.11948,-9.32668 5.39276,-9.46199 5.39276,-2.67014 0,22.26376 8.88875,63.33855 21.35263,98.67014 4.7213,13.38358 4.65687,14.26516 -0.85263,11.66586 z m -16.91178,-5.00367 C 226.23571,441.0037 212.59994,435.0387 196.5,426.6257 c -12.14074,-6.34412 -33.00531,-19.01626 -34.02402,-20.66456 -0.30478,-0.49315 2.61344,-2.4918 6.48494,-4.44146 8.57584,-4.31872 9.38306,-3.88629 1.04316,0.55883 l -5.99593,3.1958 2.74593,2.36421 c 2.47751,2.13312 14.01486,9.17439 21.74592,13.27158 1.65,0.87445 3.225,1.8149 3.5,2.0899 1.08429,1.08429 10.49087,5.48496 11.22204,5.25 0.42788,-0.1375 0.77796,0.16968 0.77796,0.68261 0,0.76058 2.62627,2.10807 5,2.56541 0.275,0.053 2.75081,1.26359 5.5018,2.69023 7.27338,3.77192 17.52099,7.80682 19.92061,7.84355 1.14267,0.0175 2.91551,0.66647 3.93963,1.44217 1.02412,0.7757 4.39912,2.15312 7.5,3.06093 7.26365,2.12649 10.10632,3.3108 8.13796,3.39041 -0.825,0.0334 -6.8603,-1.77254 -13.41178,-4.01312 z m -51.19339,-56.11585 c 18.043,-14.31267 22.79523,-18.92188 33.85529,-32.83644 l 2.75011,-3.4599 -1.1927,3 c -0.65598,1.65 -2.07075,3.72575 -3.14393,4.61279 -1.21562,1.00476 -1.65027,2.09976 -1.15291,2.9045 0.5012,0.81097 0.40161,1.04654 -0.26758,0.63296 -1.57837,-0.97549 -12.19884,10.40682 -12.22296,13.09975 -0.0111,1.2375 -0.51829,2.25 -1.12714,2.25 -0.60884,0 -0.83329,-0.71325 -0.49876,-1.58501 0.5749,-1.49818 -6.70688,3.6638 -7.9065,5.60484 -0.55892,0.90435 -7.8472,5.99009 -10.48775,7.31832 -0.825,0.41499 -0.19732,-0.27883 1.39483,-1.54181 z M 374,140.6401 c 0,-11.1177 4.57749,-43.719144 7.63678,-54.3901 1.56175,-5.447466 3.05666,-7.328089 1.98726,-2.5 -3.24637,14.656532 -5.00148,25.04902 -5.36178,31.7487 -0.2366,4.39928 -0.78475,8.44928 -1.21812,9 -0.43337,0.55071 -1.09227,4.20733 -1.46423,8.12582 -0.84662,8.91894 -0.1859,9.29975 10.12817,5.83743 4.15363,-1.39433 7.74707,-2.34013 7.98541,-2.10179 0.91692,0.91692 -15.44438,5.67266 -17.19918,4.99928 -1.25713,-0.4824 -1.59812,-0.33643 -1.09934,0.47062 C 375.79266,142.47353 375.64148,143 375.05902,143 374.47656,143 374,141.93804 374,140.6401 Z m 41,-12.98596 c 0,-0.2651 3.0375,-2.1687 6.75,-4.23021 3.7125,-2.06151 9.45,-5.54728 12.75,-7.74615 C 441.53635,110.98929 457,95.776573 457,93.542899 457,92.694304 457.4111,92 457.91356,92 c 1.0318,0 8.53602,-12.635394 9.61257,-16.185398 0.38605,-1.273031 1.5506,-3.717717 2.58789,-5.432636 1.03729,-1.714919 1.88598,-3.598124 1.88598,-4.1849 0,-1.802994 2.02468,-6.505716 2.56731,-5.963086 0.28125,0.281246 -0.57105,3.387048 -1.89399,6.901782 -7.4162,19.703039 -19.4994,35.880668 -35.96405,48.150598 C 431.20746,119.38647 415,128.61986 415,127.65414 Z M 384.56092,77.75 c 3.4803,-11.255822 14.49384,-24.883955 27.18908,-33.643684 5.27327,-3.638563 3.71352,-1.69657 -2.25924,2.812908 C 401.40539,53.023741 397,57.285422 397,59.002528 c 0,0.834008 -0.86943,2.059349 -1.93208,2.722979 C 392.60497,63.263647 386,75.0057 386,77.8461 386,79.030745 385.51968,80 384.93261,80 c -0.64638,0 -0.79299,-0.887449 -0.37169,-2.25 z M 475.645,56 c 0.36017,-1.925 0.78815,-4.4 0.95105,-5.5 0.16291,-1.1 0.58574,-3.125 0.93962,-4.5 1.5813,-6.144159 3.42463,-17.610928 3.00898,-18.717975 -0.25152,-0.669886 0.0328,-1.520893 0.63188,-1.891126 1.38752,-0.857535 0.42603,7.568759 -2.33965,20.50427 C 476.85086,55.18409 474.26741,63.362761 475.645,56 Z"
         id="path5" />
      <path
         style="fill:#8ac43d"
         d="m 259.5,450.4714 c -7.36686,-1.68404 -18.82623,-5.48341 -21.21482,-7.0338 -1.21815,-0.79068 -3.05306,-1.4376 -4.07759,-1.4376 -2.19101,0 -12.59658,-4.12497 -19.70579,-7.81175 -2.75099,-1.42664 -5.2268,-2.63725 -5.5018,-2.69023 -2.37373,-0.45734 -5,-1.80483 -5,-2.56541 0,-0.51293 -0.35008,-0.82011 -0.77796,-0.68261 -0.73117,0.23496 -10.13775,-4.16571 -11.22204,-5.25 -0.275,-0.275 -1.85,-1.21545 -3.5,-2.0899 -7.69255,-4.07678 -19.26234,-11.13324 -21.71119,-13.24173 l -2.71119,-2.33438 8.71119,-4.83791 c 9.94953,-5.52565 24.80403,-15.02826 25.66181,-16.41618 1.22543,-1.98279 8.52947,-7.19158 7.94363,-5.66491 -0.33453,0.87176 -0.11008,1.58501 0.49876,1.58501 0.60885,0 1.11606,-1.0125 1.12714,-2.25 0.0226,-2.52531 10.59727,-14.10448 12.057,-13.20232 0.49497,0.30591 0.64519,-0.10766 0.33384,-0.91905 -0.33611,-0.87588 0.27796,-1.92698 1.51145,-2.58712 C 223.0651,360.42998 224,359.36455 224,358.6739 c 0,-1.72376 9.77429,-17.08174 11.17431,-17.55778 0.76005,-0.25844 0.88432,0.39512 0.3803,2 -1.11127,3.53844 -0.69287,8.04184 1.8938,20.38388 2.86659,13.67762 4.49416,24.10557 4.00359,25.65123 -0.32273,1.01682 -0.14289,1.84877 0.39963,1.84877 0.54252,0 1.4223,1.9125 1.95506,4.25 0.53276,2.3375 2.81409,10.55 5.06964,18.25 2.25554,7.7 4.10609,15.0125 4.11233,16.25 0.006,1.2375 0.45602,2.25 0.99952,2.25 0.5435,0 1.27761,1.80997 1.63135,4.02216 0.35375,2.21219 1.03407,4.26375 1.51182,4.55902 0.47776,0.29527 0.86865,1.60315 0.86865,2.90641 0,1.30325 0.71116,3.08071 1.58036,3.94991 1.66325,1.66326 1.61667,3.42184 -0.0804,3.0339 z M 376,141.10965 c 1.10667,-0.79609 1.15635,-1.08304 0.18945,-1.09434 -1.02295,-0.012 -1.15943,-1.60635 -0.6219,-7.26531 0.37875,-3.9875 1.04322,-7.70059 1.47659,-8.2513 0.43337,-0.55072 0.98152,-4.60072 1.21812,-9 0.23659,-4.39929 1.4501,-12.9487 2.69668,-18.9987 1.24659,-6.05 2.49187,-12.2375 2.76729,-13.75 0.27542,-1.5125 0.89969,-2.75 1.38727,-2.75 0.48757,0 0.8865,-0.969255 0.8865,-2.1539 0,-2.8404 6.60497,-14.582453 9.06792,-16.120593 1.06265,-0.66363 1.94458,-1.885855 1.95986,-2.716054 0.0337,-1.832593 3.37026,-5.087975 11.97222,-11.681018 6.97878,-5.34894 16.41909,-10.199155 27.14557,-13.946762 8.1158,-2.835492 28.88363,-7.022612 38.03644,-7.668744 l 6.682,-0.471708 -0.40215,4.62939 c -0.3788,4.360578 -1.48879,10.465994 -2.93237,16.129389 -0.35048,1.375 -0.77053,3.4 -0.93344,4.5 -0.67429,4.553014 -1.8673,8.793334 -3.18414,11.31736 -0.76977,1.475452 -1.40236,3.304525 -1.40575,4.064606 -0.003,0.760081 -0.85485,2.785081 -1.89214,4.5 -1.03729,1.714919 -2.20184,4.159605 -2.58789,5.432636 C 466.44958,79.364606 458.94536,92 457.91356,92 457.4111,92 457,92.609919 457,93.355376 c 0,1.911518 -10.81762,13.491124 -17.17206,18.381654 -13.41635,10.32553 -31.0411,19.13073 -52.40312,26.18023 -4.90865,1.61986 -9.82482,3.2436 -10.92482,3.6083 -1.61695,0.53611 -1.71271,0.45645 -0.5,-0.41591 z"
         id="path4" />
      <path
         style="fill:#ef5923"
         d="m 135.5,384.79111 c -31.58744,-27.07297 -51.444806,-55.89134 -56.60203,-82.14474 -1.491006,-7.59013 -1.252174,-23.31118 0.466251,-30.69093 6.704064,-28.79051 30.988069,-56.50555 73.075129,-83.39975 6.56664,-4.19618 12.61949,-7.49842 13.45077,-7.33833 2.51382,0.48411 14.48564,15.11751 20.49841,25.05561 18.2699,30.19707 23.34263,67.44588 13.97455,102.61443 -7.92686,29.75809 -23.8441,54.37187 -48.64009,75.21506 -8.95381,7.52646 -8.27841,7.49779 -16.22299,0.68865 z m 278,-216.96942 c -3.3,-0.44204 -8.7,-2.14613 -12,-3.78687 -7.11342,-3.53676 -17.7449,-11.80013 -17.21748,-13.38237 0.58265,-1.74796 15.18461,-7.65853 21.79831,-8.82351 7.37589,-1.29923 13.37243,-6.8e-4 20.22583,4.37992 5.24446,3.35219 16.06436,15.3818 15.15638,16.85094 -0.73729,1.19297 -12.83739,4.68075 -17.96304,5.17774 -2.2,0.21332 -6.7,0.0262 -10,-0.41585 z"
         id="path3" />
      <path
         style="fill:#0d733b"
         d="m 286.5,456.86368 c -3.85,-0.56092 -7.31268,-1.32221 -7.69483,-1.69177 -0.80661,-0.78 -4.0792,-19.183 -5.98785,-33.67191 -1.76407,-13.39135 -1.77838,-63.97598 -0.0214,-75.5 3.24928,-21.31157 7.47035,-37.79234 14.23669,-55.58586 14.35414,-37.74723 41.24977,-78.05291 80.51079,-120.65313 l 6.21076,-6.73899 3.00373,2.73899 c 2.41968,2.20642 8.44676,9.48251 13.03723,15.73899 2.05782,2.80467 9.29336,15.56252 11.0593,19.5 9.9243,22.128 16.42878,46.36201 18.92239,70.5 0.39773,3.85 0.69353,18.25 0.65733,32 -0.0546,20.7472 -0.44738,27.4369 -2.30882,39.32527 -4.65574,29.73453 -14.17983,54.18268 -28.50616,73.17473 -16.04266,21.26733 -35.83455,33.89031 -62.1192,39.61871 -8.73483,1.90365 -31.69398,2.6008 -41,1.24497 z M 356.45151,135.14254 C 331.33846,123.53998 320.13316,113.58302 314.78868,98.121239 311.75052,89.331717 311.55545,69.162129 314.37406,55.25 c 1.03073,-5.0875 2.05703,-9.25 2.28067,-9.25 0.22364,0 3.65531,1.836328 7.62594,4.08073 31.15312,17.609319 43.1633,38.967903 43.66189,77.64714 0.087,6.74967 -0.20198,12.22377 -0.64218,12.16467 -0.44021,-0.0591 -5.3222,-2.19661 -10.84887,-4.75 z"
         id="path2" />
    </g>
  </g>
</svg>
