<?xml version="1.0" encoding="UTF-8" standalone="no"?>
<!-- Created with Inkscape (http://www.inkscape.org/) -->

<svg
   width="210"
   height="310"
   viewBox="-5 -80 220 310"
   version="1.1"
   id="svg1"
   xml:space="preserve"
   inkscape:version="1.4.2 (f4327f4, 2025-05-13)"
   sodipodi:docname="empty-profile.svg"
   xmlns:inkscape="http://www.inkscape.org/namespaces/inkscape"
   xmlns:sodipodi="http://sodipodi.sourceforge.net/DTD/sodipodi-0.dtd"
   xmlns="http://www.w3.org/2000/svg"
   xmlns:svg="http://www.w3.org/2000/svg"><sodipodi:namedview
     id="namedview1"
     pagecolor="#ffffff"
     bordercolor="#000000"
     borderopacity="0.25"
     inkscape:showpageshadow="2"
     inkscape:pageopacity="0.0"
     inkscape:pagecheckerboard="0"
     inkscape:deskcolor="#d1d1d1"
     inkscape:document-units="mm"
     inkscape:zoom="1.1376192"
     inkscape:cx="396.44196"
     inkscape:cy="511.15521"
     inkscape:window-width="2496"
     inkscape:window-height="1558"
     inkscape:window-x="-11"
     inkscape:window-y="-11"
     inkscape:window-maximized="1"
     inkscape:current-layer="layer1" /><defs
     id="defs1" /><g
     inkscape:label="Capa 1"
     inkscape:groupmode="layer"
     id="layer1"><path
       style="fill:#c8c4be"
       d="m 49.555968,164.82382 c 0.07705,-0.25466 0.262151,-1.1774 0.411336,-2.05052 0.960212,-5.61978 2.491786,-10.20238 5.30566,-15.875 5.734112,-11.55966 14.22348,-20.26831 25.411235,-26.06761 3.07571,-1.59433 3.34432,-1.70692 7.66109,-3.21132 17.739791,-6.18237 37.887861,-2.31793 52.639051,10.09628 0.95305,0.80206 2.01198,1.6958 2.35318,1.98609 1.49872,1.2751 6.15204,6.84055 7.74158,9.25906 3.89961,5.93332 5.4525,9.05924 7.26823,14.63084 1.26335,3.87662 2.49379,9.26937 2.49379,10.92975 v 0.76545 H 105.1285 c -52.93662,0 -55.705643,-0.0231 -55.572532,-0.46302 z m 46.065361,-61.09319 c -7.42416,-0.9742 -12.67547,-3.27809 -16.27881,-7.141938 -2.659562,-2.85183 -4.079603,-5.7948 -5.343308,-11.07372 -0.500159,-2.08934 -0.572052,-3.17591 -0.586461,-8.86355 -0.01658,-6.54303 0.155401,-8.57697 1.174497,-13.890621 1.901884,-9.916574 6.516002,-17.647692 13.330952,-22.336504 4.06079,-2.793899 8.49897,-4.253993 14.603881,-4.804464 6.11822,-0.55167 11.55063,0.364985 16.67196,2.813192 4.75324,2.272249 8.34262,5.418731 11.3667,9.964155 4.42952,6.657898 6.58043,14.701098 6.92209,25.884662 0.17539,5.74124 -0.17489,9.80162 -1.13447,13.15032 -2.80321,9.78257 -9.06612,14.626698 -20.97821,16.225898 -4.70605,0.63179 -15.19347,0.67033 -19.748821,0.0726 z"
       id="path1" /></g></svg>
